<mxfile host="Electron" modified="2023-07-10T17:53:54.056Z" agent="Mozilla/5.0 (Windows NT 10.0; Win64; x64) AppleWebKit/537.36 (KHTML, like Gecko) draw.io/21.5.0 Chrome/112.0.5615.204 Electron/24.5.1 Safari/537.36" etag="pAfz0UXxbDtUTzDZTdsq" version="21.5.0" type="device">
  <diagram name="Page-1" id="_e-cwhSMZbNiumk7BRd-">
    <mxGraphModel dx="3894" dy="1594" grid="0" gridSize="10" guides="1" tooltips="1" connect="1" arrows="1" fold="1" page="0" pageScale="1" pageWidth="850" pageHeight="1100" math="0" shadow="0">
      <root>
        <mxCell id="0" />
        <mxCell id="1" parent="0" />
        <mxCell id="ipdUFXGNDYac1Uv2Jqs4-22" style="edgeStyle=orthogonalEdgeStyle;rounded=0;orthogonalLoop=1;jettySize=auto;html=1;entryX=1;entryY=0.5;entryDx=0;entryDy=0;fillColor=#008a00;strokeColor=#005700;strokeWidth=2;labelBorderColor=none;fontStyle=0;fontFamily=Lucida Console;fontSize=18;" parent="1" source="ipdUFXGNDYac1Uv2Jqs4-1" target="ipdUFXGNDYac1Uv2Jqs4-13" edge="1">
          <mxGeometry relative="1" as="geometry">
            <Array as="points">
              <mxPoint x="581" y="150" />
            </Array>
          </mxGeometry>
        </mxCell>
        <mxCell id="CPmqW3wjhwX1I0AvipRE-121" value="&lt;font style=&quot;font-size: 16px;&quot;&gt;Router Auth&lt;br&gt;Mint / Burn&lt;br&gt;&lt;/font&gt;" style="edgeLabel;html=1;align=center;verticalAlign=middle;resizable=0;points=[];fontFamily=Lucida Console;labelBorderColor=none;" parent="ipdUFXGNDYac1Uv2Jqs4-22" vertex="1" connectable="0">
          <mxGeometry x="0.379" y="2" relative="1" as="geometry">
            <mxPoint x="11" y="-2" as="offset" />
          </mxGeometry>
        </mxCell>
        <mxCell id="ipdUFXGNDYac1Uv2Jqs4-26" style="edgeStyle=orthogonalEdgeStyle;rounded=0;orthogonalLoop=1;jettySize=auto;html=1;strokeWidth=2;labelBorderColor=none;fontStyle=0;fontFamily=Lucida Console;fontSize=18;" parent="1" source="ipdUFXGNDYac1Uv2Jqs4-1" target="ipdUFXGNDYac1Uv2Jqs4-3" edge="1">
          <mxGeometry relative="1" as="geometry" />
        </mxCell>
        <mxCell id="CPmqW3wjhwX1I0AvipRE-40" style="edgeStyle=orthogonalEdgeStyle;rounded=0;orthogonalLoop=1;jettySize=auto;html=1;entryX=0.564;entryY=0.055;entryDx=0;entryDy=0;entryPerimeter=0;strokeWidth=2;labelBorderColor=none;fontStyle=0;fontFamily=Lucida Console;fontSize=18;" parent="1" source="ipdUFXGNDYac1Uv2Jqs4-1" target="CPmqW3wjhwX1I0AvipRE-38" edge="1">
          <mxGeometry relative="1" as="geometry" />
        </mxCell>
        <mxCell id="CPmqW3wjhwX1I0AvipRE-41" style="edgeStyle=orthogonalEdgeStyle;rounded=0;orthogonalLoop=1;jettySize=auto;html=1;entryX=0.458;entryY=0.145;entryDx=0;entryDy=0;entryPerimeter=0;strokeWidth=2;labelBorderColor=none;fontStyle=0;fontFamily=Lucida Console;fontSize=18;" parent="1" source="ipdUFXGNDYac1Uv2Jqs4-1" target="CPmqW3wjhwX1I0AvipRE-39" edge="1">
          <mxGeometry relative="1" as="geometry">
            <Array as="points">
              <mxPoint x="582" y="553" />
              <mxPoint x="684" y="553" />
            </Array>
          </mxGeometry>
        </mxCell>
        <mxCell id="ipdUFXGNDYac1Uv2Jqs4-1" value="MAD Router" style="rounded=1;whiteSpace=wrap;html=1;fillColor=#fff2cc;strokeColor=#d6b656;strokeWidth=2;labelBorderColor=none;fontStyle=0;fontFamily=Lucida Console;fontSize=18;gradientColor=#ffd966;shadow=1;" parent="1" vertex="1">
          <mxGeometry x="522" y="400" width="120" height="60" as="geometry" />
        </mxCell>
        <mxCell id="ipdUFXGNDYac1Uv2Jqs4-25" style="edgeStyle=orthogonalEdgeStyle;rounded=0;orthogonalLoop=1;jettySize=auto;html=1;targetPerimeterSpacing=0;sourcePerimeterSpacing=0;strokeWidth=2;endArrow=classic;endFill=1;strokeColor=default;labelBorderColor=none;fontStyle=0;fontFamily=Lucida Console;fontSize=18;" parent="1" source="ipdUFXGNDYac1Uv2Jqs4-2" target="ipdUFXGNDYac1Uv2Jqs4-3" edge="1">
          <mxGeometry relative="1" as="geometry" />
        </mxCell>
        <mxCell id="CPmqW3wjhwX1I0AvipRE-56" value="" style="edgeStyle=orthogonalEdgeStyle;rounded=0;orthogonalLoop=1;jettySize=auto;html=1;strokeWidth=2;labelBorderColor=none;fontStyle=0;fontFamily=Lucida Console;fontSize=18;" parent="1" source="ipdUFXGNDYac1Uv2Jqs4-2" target="CPmqW3wjhwX1I0AvipRE-55" edge="1">
          <mxGeometry relative="1" as="geometry" />
        </mxCell>
        <mxCell id="CPmqW3wjhwX1I0AvipRE-98" style="edgeStyle=orthogonalEdgeStyle;rounded=0;orthogonalLoop=1;jettySize=auto;html=1;dashed=1;strokeWidth=3;endArrow=baseDash;endFill=0;fontFamily=Lucida Console;labelBorderColor=none;" parent="1" source="ipdUFXGNDYac1Uv2Jqs4-2" target="CPmqW3wjhwX1I0AvipRE-99" edge="1">
          <mxGeometry relative="1" as="geometry">
            <mxPoint x="420" y="300" as="targetPoint" />
            <Array as="points">
              <mxPoint x="420" y="570" />
            </Array>
          </mxGeometry>
        </mxCell>
        <mxCell id="ipdUFXGNDYac1Uv2Jqs4-2" value="MAD Marketplace&lt;br&gt;" style="rounded=1;whiteSpace=wrap;html=1;fillColor=#fff2cc;strokeColor=#d6b656;strokeWidth=2;labelBorderColor=none;fontStyle=0;fontFamily=Lucida Console;fontSize=18;gradientColor=#ffd966;shadow=1;" parent="1" vertex="1">
          <mxGeometry x="205" y="540" width="120" height="60" as="geometry" />
        </mxCell>
        <mxCell id="CPmqW3wjhwX1I0AvipRE-6" style="edgeStyle=orthogonalEdgeStyle;rounded=0;orthogonalLoop=1;jettySize=auto;html=1;entryX=0.5;entryY=1;entryDx=0;entryDy=0;fillColor=#d80073;strokeColor=#A50040;strokeWidth=2;labelBorderColor=none;fontStyle=0;fontFamily=Lucida Console;fontSize=18;" parent="1" source="ipdUFXGNDYac1Uv2Jqs4-3" target="ipdUFXGNDYac1Uv2Jqs4-10" edge="1">
          <mxGeometry relative="1" as="geometry">
            <Array as="points">
              <mxPoint x="264" y="360" />
              <mxPoint x="65" y="360" />
            </Array>
          </mxGeometry>
        </mxCell>
        <mxCell id="CPmqW3wjhwX1I0AvipRE-7" style="edgeStyle=orthogonalEdgeStyle;rounded=0;orthogonalLoop=1;jettySize=auto;html=1;fillColor=#d80073;strokeColor=#A50040;strokeWidth=2;labelBorderColor=none;fontStyle=0;fontFamily=Lucida Console;fontSize=18;" parent="1" source="ipdUFXGNDYac1Uv2Jqs4-3" target="ipdUFXGNDYac1Uv2Jqs4-8" edge="1">
          <mxGeometry relative="1" as="geometry">
            <Array as="points">
              <mxPoint x="264" y="360" />
              <mxPoint x="-125" y="360" />
            </Array>
          </mxGeometry>
        </mxCell>
        <mxCell id="CPmqW3wjhwX1I0AvipRE-10" style="edgeStyle=orthogonalEdgeStyle;rounded=0;orthogonalLoop=1;jettySize=auto;html=1;entryX=1;entryY=0.5;entryDx=0;entryDy=0;strokeWidth=2;labelBorderColor=none;fontStyle=0;fontFamily=Lucida Console;fontSize=18;" parent="1" edge="1">
          <mxGeometry relative="1" as="geometry">
            <mxPoint x="205" y="430" as="sourcePoint" />
            <mxPoint x="31" y="623" as="targetPoint" />
            <Array as="points">
              <mxPoint x="91" y="430" />
              <mxPoint x="91" y="623" />
            </Array>
          </mxGeometry>
        </mxCell>
        <mxCell id="ipdUFXGNDYac1Uv2Jqs4-3" value="MAD Factory" style="rounded=1;whiteSpace=wrap;html=1;fillColor=#fff2cc;strokeColor=#d6b656;strokeWidth=2;labelBorderColor=none;fontStyle=0;fontFamily=Lucida Console;fontSize=18;gradientColor=#ffd966;shadow=1;" parent="1" vertex="1">
          <mxGeometry x="205" y="400" width="120" height="60" as="geometry" />
        </mxCell>
        <mxCell id="CPmqW3wjhwX1I0AvipRE-5" style="edgeStyle=orthogonalEdgeStyle;rounded=0;orthogonalLoop=1;jettySize=auto;html=1;entryX=0;entryY=0.5;entryDx=0;entryDy=0;fillColor=#008a00;strokeColor=#005700;strokeWidth=2;labelBorderColor=none;fontStyle=0;fontFamily=Lucida Console;fontSize=18;" parent="1" source="ipdUFXGNDYac1Uv2Jqs4-8" target="ipdUFXGNDYac1Uv2Jqs4-13" edge="1">
          <mxGeometry relative="1" as="geometry">
            <Array as="points">
              <mxPoint x="-125" y="150" />
            </Array>
          </mxGeometry>
        </mxCell>
        <mxCell id="CPmqW3wjhwX1I0AvipRE-119" value="&lt;font style=&quot;font-size: 16px;&quot;&gt;Owner Auth&lt;br&gt;FULL Access&lt;br&gt;&lt;/font&gt;" style="edgeLabel;html=1;align=center;verticalAlign=middle;resizable=0;points=[];fontFamily=Lucida Console;labelBorderColor=none;" parent="CPmqW3wjhwX1I0AvipRE-5" vertex="1" connectable="0">
          <mxGeometry x="-0.3264" y="-1" relative="1" as="geometry">
            <mxPoint as="offset" />
          </mxGeometry>
        </mxCell>
        <mxCell id="CPmqW3wjhwX1I0AvipRE-9" style="edgeStyle=orthogonalEdgeStyle;rounded=0;orthogonalLoop=1;jettySize=auto;html=1;fillColor=#0050ef;strokeColor=#001DBC;strokeWidth=2;labelBorderColor=none;fontStyle=0;fontFamily=Lucida Console;fontSize=18;" parent="1" source="ipdUFXGNDYac1Uv2Jqs4-8" edge="1">
          <mxGeometry relative="1" as="geometry">
            <mxPoint x="-30" y="420" as="targetPoint" />
          </mxGeometry>
        </mxCell>
        <mxCell id="ipdUFXGNDYac1Uv2Jqs4-8" value="ERC&lt;br&gt;721" style="shape=hexagon;perimeter=hexagonPerimeter2;whiteSpace=wrap;html=1;fixedSize=1;fillColor=#e6d0de;strokeColor=#996185;strokeWidth=2;labelBorderColor=none;fontStyle=1;fontFamily=Lucida Console;fontSize=21;rounded=1;fillWeight=4;hachureGap=8;hachureAngle=45;sketch=1;gradientColor=#d5739d;glass=1;shadow=1;" parent="1" vertex="1">
          <mxGeometry x="-170" y="200" width="90" height="80" as="geometry" />
        </mxCell>
        <mxCell id="CPmqW3wjhwX1I0AvipRE-3" style="edgeStyle=orthogonalEdgeStyle;rounded=0;orthogonalLoop=1;jettySize=auto;html=1;fillColor=#008a00;strokeColor=#005700;strokeWidth=2;labelBorderColor=none;fontStyle=0;fontFamily=Lucida Console;fontSize=18;" parent="1" source="ipdUFXGNDYac1Uv2Jqs4-10" target="ipdUFXGNDYac1Uv2Jqs4-13" edge="1">
          <mxGeometry relative="1" as="geometry" />
        </mxCell>
        <mxCell id="CPmqW3wjhwX1I0AvipRE-120" value="&lt;font style=&quot;font-size: 17px;&quot;&gt;Owner Auth&lt;/font&gt;" style="edgeLabel;html=1;align=center;verticalAlign=middle;resizable=0;points=[];fontFamily=Lucida Console;labelBorderColor=none;" parent="CPmqW3wjhwX1I0AvipRE-3" vertex="1" connectable="0">
          <mxGeometry x="-0.4592" y="-3" relative="1" as="geometry">
            <mxPoint x="23" y="-3" as="offset" />
          </mxGeometry>
        </mxCell>
        <mxCell id="CPmqW3wjhwX1I0AvipRE-8" style="edgeStyle=orthogonalEdgeStyle;rounded=0;orthogonalLoop=1;jettySize=auto;html=1;fillColor=#0050ef;strokeColor=#001DBC;strokeWidth=2;labelBorderColor=none;fontStyle=0;fontFamily=Lucida Console;fontSize=18;" parent="1" source="ipdUFXGNDYac1Uv2Jqs4-10" target="ipdUFXGNDYac1Uv2Jqs4-11" edge="1">
          <mxGeometry relative="1" as="geometry">
            <Array as="points">
              <mxPoint x="-30" y="240" />
            </Array>
          </mxGeometry>
        </mxCell>
        <mxCell id="ipdUFXGNDYac1Uv2Jqs4-10" value="ERC&lt;br&gt;1155" style="shape=hexagon;perimeter=hexagonPerimeter2;whiteSpace=wrap;html=1;fixedSize=1;fillColor=#e6d0de;strokeColor=#996185;strokeWidth=2;labelBorderColor=none;fontStyle=1;fontFamily=Lucida Console;fontSize=21;rounded=1;fillWeight=4;hachureGap=8;hachureAngle=45;sketch=1;gradientColor=#d5739d;glass=1;shadow=1;" parent="1" vertex="1">
          <mxGeometry x="20" y="200" width="90" height="80" as="geometry" />
        </mxCell>
        <mxCell id="CPmqW3wjhwX1I0AvipRE-81" style="edgeStyle=orthogonalEdgeStyle;rounded=0;orthogonalLoop=1;jettySize=auto;html=1;entryX=1;entryY=0.5;entryDx=0;entryDy=0;strokeWidth=2;fontFamily=Lucida Console;labelBorderColor=none;" parent="1" source="ipdUFXGNDYac1Uv2Jqs4-11" target="CPmqW3wjhwX1I0AvipRE-25" edge="1">
          <mxGeometry relative="1" as="geometry" />
        </mxCell>
        <mxCell id="ipdUFXGNDYac1Uv2Jqs4-11" value="Royalty Splitter" style="rounded=1;whiteSpace=wrap;html=1;fillColor=#fff2cc;strokeColor=#d6b656;strokeWidth=2;labelBorderColor=none;fontStyle=0;fontFamily=Lucida Console;fontSize=18;gradientColor=#ffd966;shadow=1;" parent="1" vertex="1">
          <mxGeometry x="-89" y="593" width="120" height="60" as="geometry" />
        </mxCell>
        <mxCell id="CPmqW3wjhwX1I0AvipRE-37" style="edgeStyle=orthogonalEdgeStyle;rounded=0;orthogonalLoop=1;jettySize=auto;html=1;strokeWidth=2;labelBorderColor=none;fontStyle=0;fontFamily=Lucida Console;fontSize=18;" parent="1" edge="1">
          <mxGeometry relative="1" as="geometry">
            <mxPoint x="57" y="989.9999999999995" as="sourcePoint" />
            <mxPoint x="49" y="991" as="targetPoint" />
          </mxGeometry>
        </mxCell>
        <mxCell id="CPmqW3wjhwX1I0AvipRE-60" style="edgeStyle=orthogonalEdgeStyle;rounded=0;orthogonalLoop=1;jettySize=auto;html=1;strokeWidth=2;labelBorderColor=none;fontStyle=0;fontFamily=Lucida Console;fontSize=18;fillColor=#d80073;strokeColor=#A50040;" parent="1" source="ipdUFXGNDYac1Uv2Jqs4-12" target="CPmqW3wjhwX1I0AvipRE-61" edge="1">
          <mxGeometry relative="1" as="geometry">
            <mxPoint x="30" y="987" as="targetPoint" />
          </mxGeometry>
        </mxCell>
        <mxCell id="CPmqW3wjhwX1I0AvipRE-68" style="edgeStyle=orthogonalEdgeStyle;rounded=0;orthogonalLoop=1;jettySize=auto;html=1;entryX=1;entryY=0.5;entryDx=0;entryDy=0;strokeWidth=2;labelBorderColor=none;fontStyle=0;fontFamily=Lucida Console;fontSize=18;fillColor=#d80073;strokeColor=#A50040;" parent="1" source="ipdUFXGNDYac1Uv2Jqs4-12" target="CPmqW3wjhwX1I0AvipRE-66" edge="1">
          <mxGeometry relative="1" as="geometry" />
        </mxCell>
        <mxCell id="CPmqW3wjhwX1I0AvipRE-154" style="edgeStyle=orthogonalEdgeStyle;rounded=0;orthogonalLoop=1;jettySize=auto;html=1;fillColor=#e51400;strokeColor=#B20000;strokeWidth=2;fontFamily=Lucida Console;" parent="1" source="ipdUFXGNDYac1Uv2Jqs4-12" target="CPmqW3wjhwX1I0AvipRE-101" edge="1">
          <mxGeometry relative="1" as="geometry" />
        </mxCell>
        <mxCell id="CPmqW3wjhwX1I0AvipRE-156" style="edgeStyle=orthogonalEdgeStyle;rounded=0;orthogonalLoop=1;jettySize=auto;html=1;fontSize=18;fontFamily=Lucida Console;strokeColor=#A50040;strokeWidth=2;labelBorderColor=none;fontStyle=0;fillColor=#d80073;" parent="1" source="ipdUFXGNDYac1Uv2Jqs4-12" target="CPmqW3wjhwX1I0AvipRE-35" edge="1">
          <mxGeometry relative="1" as="geometry" />
        </mxCell>
        <mxCell id="ipdUFXGNDYac1Uv2Jqs4-12" value="Payment Manager" style="rounded=1;whiteSpace=wrap;html=1;fillColor=#fff2cc;strokeColor=#d6b656;strokeWidth=2;labelBorderColor=none;fontStyle=0;fontFamily=Lucida Console;fontSize=18;gradientColor=#ffd966;shadow=1;" parent="1" vertex="1">
          <mxGeometry x="-63" y="956" width="120" height="60" as="geometry" />
        </mxCell>
        <mxCell id="ipdUFXGNDYac1Uv2Jqs4-13" value="Two Factor NFT" style="rounded=1;whiteSpace=wrap;html=1;fillColor=#e51400;strokeColor=#B20000;strokeWidth=2;labelBorderColor=none;fontStyle=0;fontFamily=Lucida Console;fontSize=18;fontColor=#ffffff;glass=1;shadow=1;" parent="1" vertex="1">
          <mxGeometry x="201" y="120" width="120" height="60" as="geometry" />
        </mxCell>
        <mxCell id="CPmqW3wjhwX1I0AvipRE-11" value="Ambassador" style="shape=umlActor;verticalLabelPosition=bottom;verticalAlign=top;html=1;outlineConnect=0;strokeWidth=2;labelBorderColor=none;fontStyle=0;fontFamily=Lucida Console;fontSize=18;whiteSpace=wrap;" parent="1" vertex="1">
          <mxGeometry x="-577" y="462" width="30" height="60" as="geometry" />
        </mxCell>
        <mxCell id="CPmqW3wjhwX1I0AvipRE-14" value="Project" style="shape=umlActor;verticalLabelPosition=bottom;verticalAlign=top;html=1;outlineConnect=0;strokeWidth=2;labelBorderColor=none;fontStyle=0;fontFamily=Lucida Console;fontSize=18;whiteSpace=wrap;" parent="1" vertex="1">
          <mxGeometry x="-457" y="458" width="30" height="60" as="geometry" />
        </mxCell>
        <mxCell id="CPmqW3wjhwX1I0AvipRE-115" style="edgeStyle=orthogonalEdgeStyle;rounded=0;orthogonalLoop=1;jettySize=auto;html=1;entryX=0;entryY=0.5;entryDx=0;entryDy=0;dashed=1;dashPattern=1 1;strokeWidth=2;fillColor=#1ba1e2;strokeColor=#006EAF;fontFamily=Lucida Console;labelBorderColor=none;" parent="1" source="CPmqW3wjhwX1I0AvipRE-15" target="ipdUFXGNDYac1Uv2Jqs4-8" edge="1">
          <mxGeometry relative="1" as="geometry">
            <Array as="points">
              <mxPoint x="-207" y="-9" />
              <mxPoint x="-207" y="240" />
            </Array>
          </mxGeometry>
        </mxCell>
        <mxCell id="CPmqW3wjhwX1I0AvipRE-116" style="edgeStyle=orthogonalEdgeStyle;rounded=0;orthogonalLoop=1;jettySize=auto;html=1;entryX=0.5;entryY=0;entryDx=0;entryDy=0;dashed=1;dashPattern=1 1;strokeWidth=2;fillColor=#1ba1e2;strokeColor=#006EAF;fontFamily=Lucida Console;labelBorderColor=none;" parent="1" source="CPmqW3wjhwX1I0AvipRE-15" target="ipdUFXGNDYac1Uv2Jqs4-10" edge="1">
          <mxGeometry relative="1" as="geometry" />
        </mxCell>
        <mxCell id="CPmqW3wjhwX1I0AvipRE-118" value="&lt;font style=&quot;font-size: 17px;&quot;&gt;Mint Collection&lt;/font&gt;" style="edgeLabel;html=1;align=center;verticalAlign=middle;resizable=0;points=[];fontFamily=Lucida Console;labelBorderColor=none;" parent="CPmqW3wjhwX1I0AvipRE-116" vertex="1" connectable="0">
          <mxGeometry x="-0.7498" y="3" relative="1" as="geometry">
            <mxPoint x="-1" y="1" as="offset" />
          </mxGeometry>
        </mxCell>
        <mxCell id="CPmqW3wjhwX1I0AvipRE-15" value="Creator" style="shape=umlActor;verticalLabelPosition=bottom;verticalAlign=top;html=1;outlineConnect=0;strokeWidth=2;labelBorderColor=none;fontStyle=0;fontFamily=Lucida Console;fontSize=18;whiteSpace=wrap;" parent="1" vertex="1">
          <mxGeometry x="-685" y="-39" width="30" height="60" as="geometry" />
        </mxCell>
        <mxCell id="CPmqW3wjhwX1I0AvipRE-160" style="edgeStyle=orthogonalEdgeStyle;rounded=0;orthogonalLoop=1;jettySize=auto;html=1;fontFamily=Lucida Console;" parent="1" source="CPmqW3wjhwX1I0AvipRE-22" edge="1">
          <mxGeometry relative="1" as="geometry">
            <mxPoint x="-1003.3636363636365" y="784.9499999999998" as="targetPoint" />
          </mxGeometry>
        </mxCell>
        <mxCell id="CPmqW3wjhwX1I0AvipRE-161" style="edgeStyle=orthogonalEdgeStyle;rounded=0;orthogonalLoop=1;jettySize=auto;html=1;fontFamily=Lucida Console;" parent="1" source="CPmqW3wjhwX1I0AvipRE-22" edge="1">
          <mxGeometry relative="1" as="geometry">
            <mxPoint x="-829.185" y="576.363636363636" as="targetPoint" />
          </mxGeometry>
        </mxCell>
        <mxCell id="CPmqW3wjhwX1I0AvipRE-162" style="edgeStyle=orthogonalEdgeStyle;rounded=0;orthogonalLoop=1;jettySize=auto;html=1;fontSize=17;fontFamily=Lucida Console;" parent="1" source="CPmqW3wjhwX1I0AvipRE-22" edge="1">
          <mxGeometry relative="1" as="geometry">
            <mxPoint x="-829.185" y="999.9999999999995" as="targetPoint" />
          </mxGeometry>
        </mxCell>
        <mxCell id="CPmqW3wjhwX1I0AvipRE-22" value="MAD NFTs&lt;br style=&quot;font-size: 21px;&quot;&gt;" style="image;points=[];aspect=fixed;html=1;align=center;shadow=0;dashed=0;image=img/lib/allied_telesis/buildings/Medium_Business_Building.svg;strokeWidth=2;labelBorderColor=none;fontStyle=0;fontFamily=Lucida Console;fontSize=21;whiteSpace=wrap;imageBackground=default;" parent="1" vertex="1">
          <mxGeometry x="-872" y="729.9" width="85.63" height="110.1" as="geometry" />
        </mxCell>
        <mxCell id="CPmqW3wjhwX1I0AvipRE-126" style="edgeStyle=orthogonalEdgeStyle;rounded=0;orthogonalLoop=1;jettySize=auto;html=1;strokeWidth=2;fillColor=#1ba1e2;strokeColor=#006EAF;fontFamily=Lucida Console;labelBorderColor=none;" parent="1" source="CPmqW3wjhwX1I0AvipRE-25" target="CPmqW3wjhwX1I0AvipRE-87" edge="1">
          <mxGeometry relative="1" as="geometry" />
        </mxCell>
        <mxCell id="CPmqW3wjhwX1I0AvipRE-25" value="Royalties" style="image;html=1;image=img/lib/clip_art/finance/Dollar_128x128.png;strokeWidth=2;labelBorderColor=none;fontStyle=0;fontFamily=Lucida Console;fontSize=18;whiteSpace=wrap;" parent="1" vertex="1">
          <mxGeometry x="-259" y="593" width="60" height="60" as="geometry" />
        </mxCell>
        <mxCell id="CPmqW3wjhwX1I0AvipRE-43" style="edgeStyle=orthogonalEdgeStyle;rounded=0;orthogonalLoop=1;jettySize=auto;html=1;strokeWidth=2;labelBorderColor=none;fontStyle=0;fontFamily=Lucida Console;fontSize=18;" parent="1" source="CPmqW3wjhwX1I0AvipRE-38" target="CPmqW3wjhwX1I0AvipRE-44" edge="1">
          <mxGeometry relative="1" as="geometry">
            <mxPoint x="476.16499999999996" y="757" as="targetPoint" />
          </mxGeometry>
        </mxCell>
        <mxCell id="CPmqW3wjhwX1I0AvipRE-75" style="edgeStyle=orthogonalEdgeStyle;rounded=0;orthogonalLoop=1;jettySize=auto;html=1;strokeWidth=2;fontFamily=Lucida Console;labelBorderColor=none;" parent="1" source="CPmqW3wjhwX1I0AvipRE-38" edge="1">
          <mxGeometry relative="1" as="geometry">
            <mxPoint x="395.99999999999955" y="767" as="targetPoint" />
          </mxGeometry>
        </mxCell>
        <mxCell id="CPmqW3wjhwX1I0AvipRE-38" value="MINT" style="html=1;whiteSpace=wrap;aspect=fixed;shape=isoRectangle;strokeWidth=2;labelBorderColor=none;fontStyle=0;fontFamily=Lucida Console;fontSize=18;fillColor=#d5e8d4;gradientColor=#97d077;strokeColor=#82b366;shadow=1;" parent="1" vertex="1">
          <mxGeometry x="430.33" y="647" width="91.67" height="55" as="geometry" />
        </mxCell>
        <mxCell id="CPmqW3wjhwX1I0AvipRE-49" style="edgeStyle=orthogonalEdgeStyle;rounded=0;orthogonalLoop=1;jettySize=auto;html=1;entryX=0.5;entryY=0;entryDx=0;entryDy=0;strokeWidth=2;labelBorderColor=none;fontStyle=0;fontFamily=Lucida Console;fontSize=18;" parent="1" source="CPmqW3wjhwX1I0AvipRE-39" target="CPmqW3wjhwX1I0AvipRE-45" edge="1">
          <mxGeometry relative="1" as="geometry" />
        </mxCell>
        <mxCell id="CPmqW3wjhwX1I0AvipRE-39" value="BURN" style="html=1;whiteSpace=wrap;aspect=fixed;shape=isoRectangle;strokeWidth=2;labelBorderColor=none;fontStyle=0;fontFamily=Lucida Console;fontSize=18;fillColor=#f8cecc;gradientColor=#ea6b66;strokeColor=#b85450;shadow=1;" parent="1" vertex="1">
          <mxGeometry x="642" y="656" width="91.67" height="55" as="geometry" />
        </mxCell>
        <mxCell id="CPmqW3wjhwX1I0AvipRE-170" style="edgeStyle=orthogonalEdgeStyle;rounded=0;orthogonalLoop=1;jettySize=auto;html=1;entryX=1;entryY=0.5;entryDx=0;entryDy=0;strokeWidth=2;" parent="1" edge="1">
          <mxGeometry relative="1" as="geometry">
            <mxPoint x="561" y="830" as="sourcePoint" />
            <mxPoint x="57" y="989" as="targetPoint" />
            <Array as="points">
              <mxPoint x="561" y="989" />
            </Array>
          </mxGeometry>
        </mxCell>
        <mxCell id="CPmqW3wjhwX1I0AvipRE-44" value="Mint&lt;br&gt;Fee" style="image;html=1;image=img/lib/clip_art/finance/Dollar_128x128.png;strokeWidth=2;labelBorderColor=none;fontStyle=0;fontFamily=Lucida Console;fontSize=18;whiteSpace=wrap;" parent="1" vertex="1">
          <mxGeometry x="531" y="767" width="60" height="60" as="geometry" />
        </mxCell>
        <mxCell id="CPmqW3wjhwX1I0AvipRE-152" style="edgeStyle=orthogonalEdgeStyle;rounded=0;orthogonalLoop=1;jettySize=auto;html=1;strokeWidth=3;fontFamily=Lucida Console;" parent="1" edge="1">
          <mxGeometry relative="1" as="geometry">
            <mxPoint x="71.18181818181802" y="990.9090909090905" as="targetPoint" />
            <mxPoint x="687.7272727272721" y="700" as="sourcePoint" />
            <Array as="points">
              <mxPoint x="688" y="991" />
            </Array>
          </mxGeometry>
        </mxCell>
        <mxCell id="CPmqW3wjhwX1I0AvipRE-45" value="Burn&lt;br&gt;Fee" style="image;html=1;image=img/lib/clip_art/finance/Dollar_128x128.png;strokeWidth=2;labelBorderColor=none;fontStyle=0;fontFamily=Lucida Console;fontSize=18;whiteSpace=wrap;" parent="1" vertex="1">
          <mxGeometry x="657.83" y="767" width="60" height="60" as="geometry" />
        </mxCell>
        <mxCell id="CPmqW3wjhwX1I0AvipRE-58" style="edgeStyle=orthogonalEdgeStyle;rounded=0;orthogonalLoop=1;jettySize=auto;html=1;entryX=0.5;entryY=0;entryDx=0;entryDy=0;strokeWidth=2;labelBorderColor=none;fontStyle=0;fontFamily=Lucida Console;fontSize=18;" parent="1" source="CPmqW3wjhwX1I0AvipRE-55" target="CPmqW3wjhwX1I0AvipRE-57" edge="1">
          <mxGeometry relative="1" as="geometry" />
        </mxCell>
        <mxCell id="CPmqW3wjhwX1I0AvipRE-55" value="Trade" style="rhombus;whiteSpace=wrap;html=1;fillColor=#d5e8d4;strokeColor=#82b366;rounded=1;strokeWidth=2;labelBorderColor=none;fontStyle=0;fontFamily=Lucida Console;fontSize=18;gradientColor=#97d077;shadow=1;" parent="1" vertex="1">
          <mxGeometry x="225" y="640" width="80" height="80" as="geometry" />
        </mxCell>
        <mxCell id="CPmqW3wjhwX1I0AvipRE-148" style="edgeStyle=orthogonalEdgeStyle;rounded=0;orthogonalLoop=1;jettySize=auto;html=1;strokeWidth=2;fontFamily=Lucida Console;labelBorderColor=none;" parent="1" edge="1">
          <mxGeometry relative="1" as="geometry">
            <mxPoint x="264.99999999999955" y="835" as="sourcePoint" />
            <mxPoint x="53" y="991" as="targetPoint" />
            <Array as="points">
              <mxPoint x="265" y="991" />
            </Array>
          </mxGeometry>
        </mxCell>
        <mxCell id="CPmqW3wjhwX1I0AvipRE-153" value="Text" style="edgeLabel;html=1;align=center;verticalAlign=middle;resizable=0;points=[];fontFamily=Lucida Console;" parent="CPmqW3wjhwX1I0AvipRE-148" vertex="1" connectable="0">
          <mxGeometry x="0.8419" y="7" relative="1" as="geometry">
            <mxPoint x="-1" as="offset" />
          </mxGeometry>
        </mxCell>
        <mxCell id="CPmqW3wjhwX1I0AvipRE-57" value="Sale Price" style="image;html=1;image=img/lib/clip_art/finance/Dollar_128x128.png;strokeWidth=2;labelBorderColor=none;fontStyle=0;fontFamily=Lucida Console;fontSize=18;whiteSpace=wrap;" parent="1" vertex="1">
          <mxGeometry x="235.00000000000003" y="770" width="60" height="60" as="geometry" />
        </mxCell>
        <mxCell id="CPmqW3wjhwX1I0AvipRE-127" style="edgeStyle=orthogonalEdgeStyle;rounded=0;orthogonalLoop=1;jettySize=auto;html=1;entryX=0.5;entryY=1;entryDx=0;entryDy=0;strokeWidth=2;fillColor=#1ba1e2;strokeColor=#006EAF;fontFamily=Lucida Console;labelBorderColor=none;" parent="1" source="CPmqW3wjhwX1I0AvipRE-61" target="CPmqW3wjhwX1I0AvipRE-87" edge="1">
          <mxGeometry relative="1" as="geometry" />
        </mxCell>
        <mxCell id="CPmqW3wjhwX1I0AvipRE-63" value="Seller" style="shape=umlActor;verticalLabelPosition=bottom;verticalAlign=top;html=1;outlineConnect=0;strokeWidth=2;labelBorderColor=none;fontStyle=0;fontFamily=Lucida Console;fontSize=18;whiteSpace=wrap;" parent="1" vertex="1">
          <mxGeometry x="-578" y="991" width="30" height="60" as="geometry" />
        </mxCell>
        <mxCell id="CPmqW3wjhwX1I0AvipRE-128" style="edgeStyle=orthogonalEdgeStyle;rounded=0;orthogonalLoop=1;jettySize=auto;html=1;strokeWidth=2;fillColor=#1ba1e2;strokeColor=#006EAF;fontFamily=Lucida Console;labelBorderColor=none;" parent="1" source="CPmqW3wjhwX1I0AvipRE-66" target="CPmqW3wjhwX1I0AvipRE-87" edge="1">
          <mxGeometry relative="1" as="geometry" />
        </mxCell>
        <mxCell id="CPmqW3wjhwX1I0AvipRE-66" value="Mint&lt;br&gt;Price&lt;br&gt;Profit" style="image;html=1;image=img/lib/clip_art/finance/Dollar_128x128.png;strokeWidth=2;labelBorderColor=none;fontStyle=0;fontFamily=Lucida Console;fontSize=18;whiteSpace=wrap;" parent="1" vertex="1">
          <mxGeometry x="-259" y="1097" width="60" height="60" as="geometry" />
        </mxCell>
        <mxCell id="CPmqW3wjhwX1I0AvipRE-67" value="Mint&lt;br&gt;Creator" style="shape=umlActor;verticalLabelPosition=bottom;verticalAlign=top;html=1;outlineConnect=0;strokeWidth=2;labelBorderColor=none;fontStyle=0;fontFamily=Lucida Console;fontSize=18;whiteSpace=wrap;" parent="1" vertex="1">
          <mxGeometry x="-458" y="987" width="30" height="60" as="geometry" />
        </mxCell>
        <mxCell id="CPmqW3wjhwX1I0AvipRE-167" style="edgeStyle=orthogonalEdgeStyle;rounded=0;orthogonalLoop=1;jettySize=auto;html=1;entryX=1;entryY=0.5;entryDx=0;entryDy=0;strokeWidth=2;" parent="1" edge="1">
          <mxGeometry relative="1" as="geometry">
            <mxPoint x="394.9999999999991" y="832" as="sourcePoint" />
            <mxPoint x="57" y="991" as="targetPoint" />
            <Array as="points">
              <mxPoint x="395" y="991" />
            </Array>
          </mxGeometry>
        </mxCell>
        <mxCell id="CPmqW3wjhwX1I0AvipRE-74" value="Mint&lt;br&gt;Price" style="image;html=1;image=img/lib/clip_art/finance/Dollar_128x128.png;strokeWidth=2;labelBorderColor=none;fontStyle=0;fontFamily=Lucida Console;fontSize=18;whiteSpace=wrap;" parent="1" vertex="1">
          <mxGeometry x="365" y="767" width="60" height="60" as="geometry" />
        </mxCell>
        <mxCell id="CPmqW3wjhwX1I0AvipRE-86" value="0" style="swimlane;startSize=0;fillColor=#fa6800;fontColor=#000000;strokeColor=#C73500;strokeWidth=6;dashed=1;swimlaneFillColor=none;whiteSpace=wrap;fontFamily=Lucida Console;labelBorderColor=none;html=1;" parent="1" vertex="1">
          <mxGeometry x="-511" y="90" width="891" height="250" as="geometry">
            <mxRectangle x="-450" y="90" width="50" height="30" as="alternateBounds" />
          </mxGeometry>
        </mxCell>
        <mxCell id="CPmqW3wjhwX1I0AvipRE-111" value="&lt;font style=&quot;font-size: 26px;&quot;&gt;ERC Standalone&lt;/font&gt;" style="text;html=1;align=center;verticalAlign=middle;resizable=0;points=[];autosize=1;strokeColor=#9673a6;fillColor=#e1d5e7;fontFamily=Lucida Console;labelBorderColor=none;fontSize=26;fontStyle=1;labelBackgroundColor=none;textOpacity=80;strokeWidth=6;perimeterSpacing=17;rounded=1;glass=1;shadow=1;" parent="CPmqW3wjhwX1I0AvipRE-86" vertex="1">
          <mxGeometry x="37" y="33" width="244" height="43" as="geometry" />
        </mxCell>
        <mxCell id="CPmqW3wjhwX1I0AvipRE-140" style="edgeStyle=orthogonalEdgeStyle;rounded=0;orthogonalLoop=1;jettySize=auto;html=1;fillColor=#dae8fc;strokeColor=#6c8ebf;dashed=1;dashPattern=8 8;strokeWidth=2;fontFamily=Lucida Console;labelBorderColor=none;" parent="1" source="CPmqW3wjhwX1I0AvipRE-87" target="CPmqW3wjhwX1I0AvipRE-14" edge="1">
          <mxGeometry relative="1" as="geometry" />
        </mxCell>
        <mxCell id="CPmqW3wjhwX1I0AvipRE-141" style="edgeStyle=orthogonalEdgeStyle;rounded=0;orthogonalLoop=1;jettySize=auto;html=1;entryX=0.5;entryY=0.5;entryDx=0;entryDy=0;entryPerimeter=0;fillColor=#dae8fc;strokeColor=#6c8ebf;dashed=1;dashPattern=8 8;strokeWidth=2;fontFamily=Lucida Console;labelBorderColor=none;" parent="1" source="CPmqW3wjhwX1I0AvipRE-87" target="CPmqW3wjhwX1I0AvipRE-11" edge="1">
          <mxGeometry relative="1" as="geometry" />
        </mxCell>
        <mxCell id="CPmqW3wjhwX1I0AvipRE-142" style="edgeStyle=orthogonalEdgeStyle;rounded=0;orthogonalLoop=1;jettySize=auto;html=1;entryX=0.5;entryY=0.5;entryDx=0;entryDy=0;entryPerimeter=0;fillColor=#647687;strokeColor=#314354;dashed=1;dashPattern=8 8;strokeWidth=2;fontFamily=Lucida Console;labelBorderColor=none;" parent="1" source="CPmqW3wjhwX1I0AvipRE-87" target="CPmqW3wjhwX1I0AvipRE-15" edge="1">
          <mxGeometry relative="1" as="geometry" />
        </mxCell>
        <mxCell id="CPmqW3wjhwX1I0AvipRE-145" style="edgeStyle=orthogonalEdgeStyle;rounded=0;orthogonalLoop=1;jettySize=auto;html=1;entryX=0.5;entryY=0.5;entryDx=0;entryDy=0;entryPerimeter=0;fillColor=#dae8fc;strokeColor=#6c8ebf;dashed=1;dashPattern=8 8;strokeWidth=2;fontFamily=Lucida Console;labelBorderColor=none;" parent="1" source="CPmqW3wjhwX1I0AvipRE-87" target="CPmqW3wjhwX1I0AvipRE-67" edge="1">
          <mxGeometry relative="1" as="geometry" />
        </mxCell>
        <mxCell id="CPmqW3wjhwX1I0AvipRE-146" style="edgeStyle=orthogonalEdgeStyle;rounded=0;orthogonalLoop=1;jettySize=auto;html=1;entryX=0.5;entryY=0.5;entryDx=0;entryDy=0;entryPerimeter=0;fillColor=#dae8fc;strokeColor=#6c8ebf;dashed=1;dashPattern=8 8;strokeWidth=2;fontFamily=Lucida Console;labelBorderColor=none;" parent="1" source="CPmqW3wjhwX1I0AvipRE-87" target="CPmqW3wjhwX1I0AvipRE-63" edge="1">
          <mxGeometry relative="1" as="geometry" />
        </mxCell>
        <mxCell id="CPmqW3wjhwX1I0AvipRE-159" style="edgeStyle=orthogonalEdgeStyle;rounded=0;orthogonalLoop=1;jettySize=auto;html=1;entryX=1.014;entryY=0.637;entryDx=0;entryDy=0;entryPerimeter=0;fontFamily=Lucida Console;strokeColor=#6c8ebf;fillColor=#dae8fc;dashed=1;dashPattern=8 8;strokeWidth=2;labelBorderColor=none;" parent="1" source="CPmqW3wjhwX1I0AvipRE-87" target="CPmqW3wjhwX1I0AvipRE-22" edge="1">
          <mxGeometry relative="1" as="geometry" />
        </mxCell>
        <mxCell id="CPmqW3wjhwX1I0AvipRE-99" value="&lt;b style=&quot;font-size: 21px;&quot;&gt;&lt;font style=&quot;font-size: 21px;&quot;&gt;SEAPORT&lt;/font&gt;&lt;/b&gt;" style="rounded=1;whiteSpace=wrap;html=1;strokeWidth=2;fillWeight=4;hachureGap=8;hachureAngle=45;fillColor=#e6d0de;sketch=1;strokeColor=#996185;gradientColor=#d5739d;fontFamily=Lucida Console;labelBorderColor=none;fontSize=21;glass=1;shadow=1;" parent="1" vertex="1">
          <mxGeometry x="983" y="468" width="151" height="66" as="geometry" />
        </mxCell>
        <mxCell id="CPmqW3wjhwX1I0AvipRE-110" value="" style="swimlane;startSize=0;fillColor=#60a917;strokeColor=#2D7600;strokeWidth=6;dashed=1;whiteSpace=wrap;fontFamily=Lucida Console;labelBorderColor=none;html=1;fontColor=#ffffff;" parent="1" vertex="1">
          <mxGeometry x="165" y="272" width="710" height="650" as="geometry" />
        </mxCell>
        <mxCell id="CPmqW3wjhwX1I0AvipRE-112" value="&lt;span style=&quot;font-size: 26px;&quot;&gt;MAD Contracts&lt;/span&gt;" style="text;html=1;align=center;verticalAlign=middle;resizable=0;points=[];autosize=1;strokeColor=#36393d;fillColor=#cdeb8b;fontFamily=Lucida Console;labelBorderColor=none;fontSize=26;fontStyle=1;labelBackgroundColor=none;textOpacity=80;strokeWidth=6;perimeterSpacing=17;rounded=1;glass=1;shadow=1;" parent="CPmqW3wjhwX1I0AvipRE-110" vertex="1">
          <mxGeometry x="429" y="30" width="228" height="43" as="geometry" />
        </mxCell>
        <mxCell id="CPmqW3wjhwX1I0AvipRE-61" value="Seller&lt;br&gt;Profit" style="image;html=1;image=img/lib/clip_art/finance/Dollar_128x128.png;strokeWidth=2;labelBorderColor=none;fontStyle=0;fontFamily=Lucida Console;fontSize=18;whiteSpace=wrap;" parent="1" vertex="1">
          <mxGeometry x="-259" y="957" width="60" height="60" as="geometry" />
        </mxCell>
        <mxCell id="CPmqW3wjhwX1I0AvipRE-149" value="" style="swimlane;startSize=0;strokeWidth=6;dashed=1;whiteSpace=wrap;fontFamily=Lucida Console;labelBorderColor=none;html=1;" parent="1" vertex="1">
          <mxGeometry x="-332" y="412" width="477" height="845" as="geometry" />
        </mxCell>
        <mxCell id="CPmqW3wjhwX1I0AvipRE-151" value="&lt;span style=&quot;font-size: 26px;&quot;&gt;Payments&lt;br style=&quot;font-size: 26px;&quot;&gt;And&lt;br style=&quot;font-size: 26px;&quot;&gt;Royalties&lt;br style=&quot;font-size: 26px;&quot;&gt;&lt;/span&gt;" style="text;html=1;align=center;verticalAlign=middle;resizable=0;points=[];autosize=1;strokeColor=#d6b656;fillColor=#fff2cc;fontFamily=Lucida Console;labelBorderColor=none;fontSize=26;fontStyle=1;labelBackgroundColor=none;textOpacity=80;strokeWidth=6;perimeterSpacing=17;rounded=1;glass=0;shadow=1;" parent="CPmqW3wjhwX1I0AvipRE-149" vertex="1">
          <mxGeometry x="31" y="30" width="164" height="106" as="geometry" />
        </mxCell>
        <mxCell id="CPmqW3wjhwX1I0AvipRE-101" value="Royalties&lt;br&gt;" style="image;html=1;image=img/lib/clip_art/finance/Dollar_128x128.png;strokeWidth=2;labelBorderColor=none;fontStyle=0;fontFamily=Lucida Console;fontSize=18;whiteSpace=wrap;" parent="CPmqW3wjhwX1I0AvipRE-149" vertex="1">
          <mxGeometry x="383" y="297" width="60" height="60" as="geometry" />
        </mxCell>
        <mxCell id="CPmqW3wjhwX1I0AvipRE-35" value="Protocol&amp;nbsp;&lt;br&gt;Fees" style="image;html=1;image=img/lib/clip_art/finance/Dollar_128x128.png;strokeWidth=2;labelBorderColor=none;fontStyle=0;fontFamily=Lucida Console;fontSize=18;whiteSpace=wrap;" parent="CPmqW3wjhwX1I0AvipRE-149" vertex="1">
          <mxGeometry x="215" y="358" width="60" height="60" as="geometry" />
        </mxCell>
        <mxCell id="CPmqW3wjhwX1I0AvipRE-87" value="&lt;font style=&quot;font-size: 21px;&quot;&gt;Withdraw&lt;br&gt;&lt;/font&gt;" style="shape=ext;double=1;rounded=1;whiteSpace=wrap;html=1;fillColor=#d5e8d4;strokeColor=#82b366;gradientColor=#97d077;fontFamily=Lucida Console;labelBorderColor=none;shadow=1;" parent="CPmqW3wjhwX1I0AvipRE-149" vertex="1">
          <mxGeometry x="43" y="348" width="120" height="80" as="geometry" />
        </mxCell>
        <mxCell id="CPmqW3wjhwX1I0AvipRE-157" style="edgeStyle=orthogonalEdgeStyle;rounded=0;orthogonalLoop=1;jettySize=auto;html=1;entryX=1;entryY=0.5;entryDx=0;entryDy=0;fontSize=18;fontFamily=Lucida Console;strokeColor=#A50040;strokeWidth=2;labelBorderColor=none;fontStyle=0;fillColor=#d80073;" parent="CPmqW3wjhwX1I0AvipRE-149" source="CPmqW3wjhwX1I0AvipRE-35" target="CPmqW3wjhwX1I0AvipRE-87" edge="1">
          <mxGeometry relative="1" as="geometry" />
        </mxCell>
        <mxCell id="CPmqW3wjhwX1I0AvipRE-158" style="edgeStyle=orthogonalEdgeStyle;rounded=0;orthogonalLoop=1;jettySize=auto;html=1;entryX=0.5;entryY=1;entryDx=0;entryDy=0;fontFamily=Lucida Console;" parent="1" source="CPmqW3wjhwX1I0AvipRE-101" target="ipdUFXGNDYac1Uv2Jqs4-11" edge="1">
          <mxGeometry relative="1" as="geometry" />
        </mxCell>
        <mxCell id="CPmqW3wjhwX1I0AvipRE-163" value="Community&lt;br style=&quot;font-size: 21px;&quot;&gt;" style="shape=image;html=1;verticalLabelPosition=bottom;verticalAlign=top;imageAspect=1;aspect=fixed;image=img/clipart/Gear_128x128.png;imageBackground=none;fontSize=21;fontFamily=Lucida Console;" parent="1" vertex="1">
          <mxGeometry x="-859" y="490" width="52" height="61" as="geometry" />
        </mxCell>
        <mxCell id="CPmqW3wjhwX1I0AvipRE-164" value="Development&lt;br style=&quot;font-size: 21px;&quot;&gt;" style="shape=image;html=1;verticalLabelPosition=bottom;verticalAlign=top;imageAspect=1;aspect=fixed;image=img/clipart/Gear_128x128.png;imageBackground=none;fontSize=21;fontFamily=Lucida Console;" parent="1" vertex="1">
          <mxGeometry x="-1053" y="744" width="52" height="61" as="geometry" />
        </mxCell>
        <mxCell id="CPmqW3wjhwX1I0AvipRE-165" value="DAO" style="shape=image;html=1;verticalLabelPosition=bottom;verticalAlign=top;imageAspect=1;aspect=fixed;image=img/clipart/Gear_128x128.png;imageBackground=none;fontSize=21;fontFamily=Lucida Console;" parent="1" vertex="1">
          <mxGeometry x="-855.18" y="1003" width="52" height="61" as="geometry" />
        </mxCell>
      </root>
    </mxGraphModel>
  </diagram>
</mxfile>
